<svg xmlns="http://www.w3.org/2000/svg" viewBox="0 0 800 600" width="800" height="600" role="img" aria-label="Calzone">
  <defs>
    <radialGradient id="bg" cx="42%" cy="34%" r="80%"><stop offset="0%" stop-color="#241813"/><stop offset="100%" stop-color="#0a0706"/></radialGradient>
    <linearGradient id="dough" x1="0" y1="0" x2="0" y2="1"><stop offset="0%" stop-color="#f0c876"/><stop offset="55%" stop-color="#d99a3f"/><stop offset="100%" stop-color="#9c5d1d"/></linearGradient>
    <radialGradient id="vig" cx="50%" cy="42%" r="75%"><stop offset="60%" stop-color="#000" stop-opacity="0"/><stop offset="100%" stop-color="#000" stop-opacity="0.55"/></radialGradient>
  </defs>
  <rect width="800" height="600" fill="url(#bg)"/>
  <ellipse cx="400" cy="300" rx="270" ry="250" fill="#1c120b"/>
  <ellipse cx="400" cy="296" rx="255" ry="235" fill="#3a2414"/>
  <path d="M 200 300 Q 200 150 400 150 Q 600 150 600 300 Q 480 360 400 358 Q 320 360 200 300 Z" fill="url(#dough)"/>
  <path d="M 215 300 Q 300 330 400 332 Q 500 330 585 300" fill="none" stroke="#7d4a18" stroke-width="6" opacity="0.6"/>
  <path d="M 250 250 q 30 -18 60 0 M 360 220 q 30 -18 60 0 M 470 250 q 30 -18 60 0" fill="none" stroke="#8a5520" stroke-width="5" stroke-linecap="round" opacity="0.5"/>
  <circle cx="335.3" cy="356.5" r="2.0" fill="#fff" opacity="0.2"/><circle cx="453.7" cy="214.8" r="2.4" fill="#fff" opacity="0.2"/><circle cx="328.7" cy="372.8" r="1.1" fill="#fff" opacity="0.2"/><circle cx="574.1" cy="318.3" r="1.5" fill="#fff" opacity="0.2"/><circle cx="364.1" cy="376.5" r="2.3" fill="#fff" opacity="0.2"/><circle cx="245.0" cy="334.1" r="2.8" fill="#fff" opacity="0.2"/><circle cx="228.1" cy="225.4" r="1.2" fill="#fff" opacity="0.2"/><circle cx="518.5" cy="304.7" r="1.5" fill="#fff" opacity="0.2"/><circle cx="412.2" cy="233.2" r="1.7" fill="#fff" opacity="0.2"/><circle cx="539.8" cy="251.8" r="2.0" fill="#fff" opacity="0.2"/><circle cx="338.7" cy="256.8" r="2.2" fill="#fff" opacity="0.2"/><circle cx="378.5" cy="355.7" r="2.5" fill="#fff" opacity="0.2"/><circle cx="526.5" cy="182.4" r="2.4" fill="#fff" opacity="0.2"/><circle cx="223.0" cy="222.3" r="1.2" fill="#fff" opacity="0.2"/><circle cx="541.7" cy="202.8" r="2.1" fill="#fff" opacity="0.2"/><circle cx="365.6" cy="384.5" r="2.8" fill="#fff" opacity="0.2"/><circle cx="227.8" cy="170.9" r="1.6" fill="#fff" opacity="0.2"/><circle cx="536.6" cy="367.3" r="1.1" fill="#fff" opacity="0.2"/><circle cx="325.6" cy="240.0" r="1.2" fill="#fff" opacity="0.2"/><circle cx="399.4" cy="220.6" r="2.9" fill="#fff" opacity="0.2"/><circle cx="521.4" cy="344.4" r="2.5" fill="#fff" opacity="0.2"/><circle cx="282.3" cy="165.3" r="2.3" fill="#fff" opacity="0.2"/><circle cx="464.1" cy="322.1" r="1.8" fill="#fff" opacity="0.2"/><circle cx="383.9" cy="385.2" r="1.5" fill="#fff" opacity="0.2"/><circle cx="485.4" cy="330.0" r="1.2" fill="#fff" opacity="0.2"/><circle cx="373.2" cy="210.0" r="2.5" fill="#fff" opacity="0.2"/><circle cx="340.1" cy="187.0" r="2.7" fill="#fff" opacity="0.2"/><circle cx="312.8" cy="331.4" r="2.3" fill="#fff" opacity="0.2"/><circle cx="543.9" cy="334.5" r="1.7" fill="#fff" opacity="0.2"/><circle cx="305.3" cy="162.2" r="2.3" fill="#fff" opacity="0.2"/>
  <ellipse cx="400" cy="290" rx="270" ry="250" fill="url(#vig)"/>
  <text x="400" y="554" text-anchor="middle" font-family="Georgia, serif" font-style="italic" font-size="44" fill="#f5ecdd">Calzone</text>
  <text x="400" y="582" text-anchor="middle" font-family="Arial, sans-serif" font-size="13" letter-spacing="4" fill="#e8590c">LA BELLA · PIZZERIA</text>
</svg>