<svg xmlns="http://www.w3.org/2000/svg" viewBox="0 0 800 600" width="800" height="600" role="img" aria-label="Campagnarde">
  <defs>
    <radialGradient id="bg" cx="42%" cy="34%" r="80%"><stop offset="0%" stop-color="#241813"/><stop offset="100%" stop-color="#0a0706"/></radialGradient>
    <radialGradient id="crust" cx="50%" cy="46%" r="58%"><stop offset="62%" stop-color="#e7b15a"/><stop offset="86%" stop-color="#c07d2c"/><stop offset="100%" stop-color="#7d4314"/></radialGradient>
    <radialGradient id="base" cx="48%" cy="44%" r="58%"><stop offset="0%" stop-color="#f3e7c9"/><stop offset="100%" stop-color="#dcc79a"/></radialGradient>
    <radialGradient id="vig" cx="50%" cy="42%" r="75%"><stop offset="62%" stop-color="#000" stop-opacity="0"/><stop offset="100%" stop-color="#000" stop-opacity="0.55"/></radialGradient>
  </defs>
  <rect width="800" height="600" fill="url(#bg)"/>
  <ellipse cx="400" cy="298" rx="269" ry="249" fill="#1c120b"/>
  <ellipse cx="400" cy="294" rx="255" ry="239" fill="#3a2414"/>
  <circle cx="400" cy="280" r="235" fill="url(#crust)"/>
  <circle cx="400" cy="280" r="211" fill="url(#base)"/>
  <circle cx="623.1" cy="309.2" r="7.7" fill="#3a1e0c" opacity="0.55"/><circle cx="604.8" cy="373.1" r="6.5" fill="#3a1e0c" opacity="0.55"/><circle cx="550.7" cy="447.1" r="8.0" fill="#3a1e0c" opacity="0.55"/><circle cx="501.2" cy="480.9" r="7.6" fill="#3a1e0c" opacity="0.55"/><circle cx="465.9" cy="495.1" r="9.8" fill="#3a1e0c" opacity="0.55"/><circle cx="386.9" cy="504.6" r="9.7" fill="#3a1e0c" opacity="0.55"/><circle cx="309.6" cy="486.0" r="7.1" fill="#3a1e0c" opacity="0.55"/><circle cx="274.8" cy="467.0" r="10.1" fill="#3a1e0c" opacity="0.55"/><circle cx="215.5" cy="408.8" r="9.1" fill="#3a1e0c" opacity="0.55"/><circle cx="185.5" cy="348.1" r="5.9" fill="#3a1e0c" opacity="0.55"/><circle cx="177.1" cy="310.4" r="10.1" fill="#3a1e0c" opacity="0.55"/><circle cx="180.6" cy="230.3" r="10.2" fill="#3a1e0c" opacity="0.55"/><circle cx="198.0" cy="180.8" r="5.7" fill="#3a1e0c" opacity="0.55"/><circle cx="249.5" cy="112.7" r="8.8" fill="#3a1e0c" opacity="0.55"/><circle cx="257.4" cy="105.9" r="4.7" fill="#3a1e0c" opacity="0.55"/><circle cx="358.8" cy="58.8" r="10.5" fill="#3a1e0c" opacity="0.55"/><circle cx="405.5" cy="55.1" r="4.7" fill="#3a1e0c" opacity="0.55"/><circle cx="447.1" cy="60.0" r="4.1" fill="#3a1e0c" opacity="0.55"/><circle cx="496.8" cy="76.9" r="4.7" fill="#3a1e0c" opacity="0.55"/><circle cx="556.1" cy="117.9" r="9.7" fill="#3a1e0c" opacity="0.55"/><circle cx="593.1" cy="164.5" r="9.0" fill="#3a1e0c" opacity="0.55"/><circle cx="619.8" cy="231.9" r="9.4" fill="#3a1e0c" opacity="0.55"/>
  <circle cx="361.7" cy="239.7" r="13.0" fill="#ecdcae"/><circle cx="357.8" cy="235.8" r="4.5" fill="#ffffff" opacity="0.3"/><circle cx="243.1" cy="383.3" r="13.0" fill="#ecdcae"/><circle cx="239.2" cy="379.4" r="4.5" fill="#ffffff" opacity="0.3"/><circle cx="483.6" cy="370.9" r="13.0" fill="#ecdcae"/><circle cx="479.7" cy="367.0" r="4.5" fill="#ffffff" opacity="0.3"/><circle cx="431.6" cy="304.5" r="13.0" fill="#ecdcae"/><circle cx="427.7" cy="300.6" r="4.5" fill="#ffffff" opacity="0.3"/><circle cx="231.0" cy="224.9" r="13.0" fill="#ecdcae"/><circle cx="227.1" cy="221.0" r="4.5" fill="#ffffff" opacity="0.3"/><circle cx="526.4" cy="424.4" r="13.0" fill="#ecdcae"/><circle cx="522.5" cy="420.5" r="4.5" fill="#ffffff" opacity="0.3"/><circle cx="514.7" cy="385.1" r="13.0" fill="#ecdcae"/><circle cx="510.8" cy="381.2" r="4.5" fill="#ffffff" opacity="0.3"/><circle cx="444.9" cy="329.5" r="13.0" fill="#ecdcae"/><circle cx="441.0" cy="325.6" r="4.5" fill="#ffffff" opacity="0.3"/><circle cx="360.8" cy="235.6" r="9.0" fill="#c87b6a"/><circle cx="358.1" cy="232.9" r="3.1" fill="#ffffff" opacity="0.3"/><circle cx="259.3" cy="159.9" r="9.0" fill="#c87b6a"/><circle cx="256.6" cy="157.2" r="3.1" fill="#ffffff" opacity="0.3"/><circle cx="276.3" cy="254.6" r="9.0" fill="#c87b6a"/><circle cx="273.6" cy="251.9" r="3.1" fill="#ffffff" opacity="0.3"/><circle cx="446.8" cy="394.9" r="9.0" fill="#c87b6a"/><circle cx="444.1" cy="392.2" r="3.1" fill="#ffffff" opacity="0.3"/><circle cx="361.5" cy="302.6" r="9.0" fill="#c87b6a"/><circle cx="358.8" cy="299.9" r="3.1" fill="#ffffff" opacity="0.3"/><circle cx="384.2" cy="234.8" r="9.0" fill="#c87b6a"/><circle cx="381.5" cy="232.1" r="3.1" fill="#ffffff" opacity="0.3"/><circle cx="269.7" cy="300.3" r="9.0" fill="#c87b6a"/><circle cx="267.0" cy="297.6" r="3.1" fill="#ffffff" opacity="0.3"/><circle cx="271.5" cy="290.3" r="9.0" fill="#c87b6a"/><circle cx="268.8" cy="287.6" r="3.1" fill="#ffffff" opacity="0.3"/><circle cx="359.5" cy="342.2" r="9.0" fill="#c87b6a"/><circle cx="356.8" cy="339.5" r="3.1" fill="#ffffff" opacity="0.3"/><circle cx="548.8" cy="298.9" r="8.0" fill="#efe6d2"/><circle cx="546.4" cy="296.5" r="2.8" fill="#ffffff" opacity="0.4"/><circle cx="331.0" cy="332.6" r="8.0" fill="#efe6d2"/><circle cx="328.6" cy="330.2" r="2.8" fill="#ffffff" opacity="0.4"/><circle cx="361.5" cy="254.1" r="8.0" fill="#efe6d2"/><circle cx="359.1" cy="251.7" r="2.8" fill="#ffffff" opacity="0.4"/><circle cx="299.7" cy="252.0" r="8.0" fill="#efe6d2"/><circle cx="297.3" cy="249.6" r="2.8" fill="#ffffff" opacity="0.4"/><circle cx="501.9" cy="393.5" r="8.0" fill="#efe6d2"/><circle cx="499.5" cy="391.1" r="2.8" fill="#ffffff" opacity="0.4"/><circle cx="457.1" cy="260.9" r="8.0" fill="#efe6d2"/><circle cx="454.7" cy="258.5" r="2.8" fill="#ffffff" opacity="0.4"/><circle cx="371.4" cy="205.5" r="8.0" fill="#efe6d2"/><circle cx="369.0" cy="203.1" r="2.8" fill="#ffffff" opacity="0.4"/>
  <ellipse cx="400" cy="280" rx="269" ry="249" fill="url(#vig)"/>
  <text x="400" y="554" text-anchor="middle" font-family="Georgia, 'Times New Roman', serif" font-style="italic" font-size="44" fill="#f5ecdd">Campagnarde</text>
  <text x="400" y="582" text-anchor="middle" font-family="Arial, sans-serif" font-size="13" letter-spacing="4" fill="#e8590c">LA BELLA · PIZZERIA</text>
</svg>