<svg xmlns="http://www.w3.org/2000/svg" viewBox="0 0 800 600" width="800" height="600" role="img" aria-label="Chèvre Miel">
  <defs>
    <radialGradient id="bg" cx="42%" cy="34%" r="80%"><stop offset="0%" stop-color="#241813"/><stop offset="100%" stop-color="#0a0706"/></radialGradient>
    <radialGradient id="crust" cx="50%" cy="46%" r="58%"><stop offset="62%" stop-color="#e7b15a"/><stop offset="86%" stop-color="#c07d2c"/><stop offset="100%" stop-color="#7d4314"/></radialGradient>
    <radialGradient id="base" cx="48%" cy="44%" r="58%"><stop offset="0%" stop-color="#f3e7c9"/><stop offset="100%" stop-color="#dcc79a"/></radialGradient>
    <radialGradient id="vig" cx="50%" cy="42%" r="75%"><stop offset="62%" stop-color="#000" stop-opacity="0"/><stop offset="100%" stop-color="#000" stop-opacity="0.55"/></radialGradient>
  </defs>
  <rect width="800" height="600" fill="url(#bg)"/>
  <ellipse cx="400" cy="298" rx="269" ry="249" fill="#1c120b"/>
  <ellipse cx="400" cy="294" rx="255" ry="239" fill="#3a2414"/>
  <circle cx="400" cy="280" r="235" fill="url(#crust)"/>
  <circle cx="400" cy="280" r="211" fill="url(#base)"/>
  <circle cx="623.6" cy="305.0" r="10.2" fill="#3a1e0c" opacity="0.55"/><circle cx="593.6" cy="394.7" r="6.1" fill="#3a1e0c" opacity="0.55"/><circle cx="549.9" cy="447.8" r="8.4" fill="#3a1e0c" opacity="0.55"/><circle cx="532.7" cy="461.7" r="8.0" fill="#3a1e0c" opacity="0.55"/><circle cx="487.9" cy="487.1" r="11.0" fill="#3a1e0c" opacity="0.55"/><circle cx="383.7" cy="504.4" r="7.8" fill="#3a1e0c" opacity="0.55"/><circle cx="335.9" cy="495.7" r="8.6" fill="#3a1e0c" opacity="0.55"/><circle cx="295.9" cy="479.4" r="5.2" fill="#3a1e0c" opacity="0.55"/><circle cx="209.3" cy="399.4" r="9.4" fill="#3a1e0c" opacity="0.55"/><circle cx="191.7" cy="365.1" r="10.6" fill="#3a1e0c" opacity="0.55"/><circle cx="177.8" cy="315.2" r="6.2" fill="#3a1e0c" opacity="0.55"/><circle cx="179.1" cy="237.3" r="9.3" fill="#3a1e0c" opacity="0.55"/><circle cx="204.5" cy="168.7" r="7.5" fill="#3a1e0c" opacity="0.55"/><circle cx="236.5" cy="125.5" r="6.1" fill="#3a1e0c" opacity="0.55"/><circle cx="296.9" cy="80.0" r="6.6" fill="#3a1e0c" opacity="0.55"/><circle cx="370.1" cy="57.0" r="4.5" fill="#3a1e0c" opacity="0.55"/><circle cx="380.8" cy="55.8" r="5.6" fill="#3a1e0c" opacity="0.55"/><circle cx="445.0" cy="59.5" r="9.0" fill="#3a1e0c" opacity="0.55"/><circle cx="504.9" cy="81.0" r="4.6" fill="#3a1e0c" opacity="0.55"/><circle cx="554.9" cy="116.8" r="8.9" fill="#3a1e0c" opacity="0.55"/><circle cx="612.9" cy="207.2" r="10.3" fill="#3a1e0c" opacity="0.55"/><circle cx="622.8" cy="248.7" r="10.6" fill="#3a1e0c" opacity="0.55"/>
  <circle cx="397.2" cy="404.1" r="17.0" fill="#f7f2e8"/><circle cx="392.1" cy="399.0" r="5.9" fill="#ffffff" opacity="0.35"/><circle cx="211.6" cy="289.5" r="17.0" fill="#f7f2e8"/><circle cx="206.5" cy="284.4" r="5.9" fill="#ffffff" opacity="0.35"/><circle cx="271.1" cy="245.7" r="17.0" fill="#f7f2e8"/><circle cx="266.0" cy="240.6" r="5.9" fill="#ffffff" opacity="0.35"/><circle cx="419.8" cy="462.9" r="17.0" fill="#f7f2e8"/><circle cx="414.7" cy="457.8" r="5.9" fill="#ffffff" opacity="0.35"/><circle cx="264.6" cy="161.5" r="17.0" fill="#f7f2e8"/><circle cx="259.5" cy="156.4" r="5.9" fill="#ffffff" opacity="0.35"/><circle cx="470.3" cy="342.9" r="17.0" fill="#f7f2e8"/><circle cx="465.2" cy="337.8" r="5.9" fill="#ffffff" opacity="0.35"/><circle cx="352.1" cy="321.2" r="17.0" fill="#f7f2e8"/><circle cx="347.0" cy="316.1" r="5.9" fill="#ffffff" opacity="0.35"/><circle cx="501.0" cy="367.6" r="7.0" fill="#b98438"/><circle cx="498.9" cy="365.5" r="2.4" fill="#ffffff" opacity="0.25"/><circle cx="332.2" cy="117.6" r="7.0" fill="#b98438"/><circle cx="330.1" cy="115.5" r="2.4" fill="#ffffff" opacity="0.25"/><circle cx="492.8" cy="344.2" r="7.0" fill="#b98438"/><circle cx="490.7" cy="342.1" r="2.4" fill="#ffffff" opacity="0.25"/><circle cx="337.9" cy="427.7" r="7.0" fill="#b98438"/><circle cx="335.8" cy="425.6" r="2.4" fill="#ffffff" opacity="0.25"/><circle cx="369.5" cy="260.6" r="7.0" fill="#b98438"/><circle cx="367.4" cy="258.5" r="2.4" fill="#ffffff" opacity="0.25"/><circle cx="437.4" cy="297.8" r="7.0" fill="#b98438"/><circle cx="435.3" cy="295.7" r="2.4" fill="#ffffff" opacity="0.25"/><circle cx="363.7" cy="254.7" r="7.0" fill="#b98438"/><circle cx="361.6" cy="252.6" r="2.4" fill="#ffffff" opacity="0.25"/><circle cx="396.1" cy="322.7" r="7.0" fill="#b98438"/><circle cx="394.0" cy="320.6" r="2.4" fill="#ffffff" opacity="0.25"/><circle cx="280.0" cy="348.3" r="7.0" fill="#b98438"/><circle cx="277.9" cy="346.2" r="2.4" fill="#ffffff" opacity="0.25"/><circle cx="375.1" cy="142.2" r="4" fill="#e0a92e" opacity="0.85"/><circle cx="308.9" cy="223.3" r="4" fill="#e0a92e" opacity="0.85"/><circle cx="507.2" cy="213.1" r="4" fill="#e0a92e" opacity="0.85"/><circle cx="462.3" cy="254.4" r="4" fill="#e0a92e" opacity="0.85"/><circle cx="434.3" cy="253.1" r="4" fill="#e0a92e" opacity="0.85"/><circle cx="459.6" cy="269.2" r="4" fill="#e0a92e" opacity="0.85"/><circle cx="406.7" cy="407.9" r="4" fill="#e0a92e" opacity="0.85"/><circle cx="519.3" cy="296.2" r="4" fill="#e0a92e" opacity="0.85"/><circle cx="489.9" cy="386.6" r="4" fill="#e0a92e" opacity="0.85"/><circle cx="489.5" cy="444.7" r="4" fill="#e0a92e" opacity="0.85"/><circle cx="310.4" cy="209.9" r="6.0" fill="#6a9a3b"/><circle cx="308.6" cy="208.1" r="2.1" fill="#ffffff" opacity="0.3"/><circle cx="382.6" cy="307.1" r="6.0" fill="#6a9a3b"/><circle cx="380.8" cy="305.3" r="2.1" fill="#ffffff" opacity="0.3"/><circle cx="274.8" cy="311.2" r="6.0" fill="#6a9a3b"/><circle cx="273.0" cy="309.4" r="2.1" fill="#ffffff" opacity="0.3"/><circle cx="374.6" cy="259.4" r="6.0" fill="#6a9a3b"/><circle cx="372.8" cy="257.6" r="2.1" fill="#ffffff" opacity="0.3"/><circle cx="474.5" cy="178.7" r="6.0" fill="#6a9a3b"/><circle cx="472.7" cy="176.9" r="2.1" fill="#ffffff" opacity="0.3"/><circle cx="289.8" cy="276.0" r="6.0" fill="#6a9a3b"/><circle cx="288.0" cy="274.2" r="2.1" fill="#ffffff" opacity="0.3"/><circle cx="491.6" cy="153.5" r="6.0" fill="#6a9a3b"/><circle cx="489.8" cy="151.7" r="2.1" fill="#ffffff" opacity="0.3"/><circle cx="486.3" cy="286.1" r="6.0" fill="#6a9a3b"/><circle cx="484.5" cy="284.3" r="2.1" fill="#ffffff" opacity="0.3"/>
  <ellipse cx="400" cy="280" rx="269" ry="249" fill="url(#vig)"/>
  <text x="400" y="554" text-anchor="middle" font-family="Georgia, 'Times New Roman', serif" font-style="italic" font-size="44" fill="#f5ecdd">Chèvre Miel</text>
  <text x="400" y="582" text-anchor="middle" font-family="Arial, sans-serif" font-size="13" letter-spacing="4" fill="#e8590c">LA BELLA · PIZZERIA</text>
</svg>