<svg xmlns="http://www.w3.org/2000/svg" viewBox="0 0 800 600" width="800" height="600" role="img" aria-label="Frutti di Mare">
  <defs>
    <radialGradient id="bg" cx="42%" cy="34%" r="80%"><stop offset="0%" stop-color="#241813"/><stop offset="100%" stop-color="#0a0706"/></radialGradient>
    <radialGradient id="crust" cx="50%" cy="46%" r="58%"><stop offset="62%" stop-color="#e7b15a"/><stop offset="86%" stop-color="#c07d2c"/><stop offset="100%" stop-color="#7d4314"/></radialGradient>
    <radialGradient id="base" cx="48%" cy="44%" r="58%"><stop offset="0%" stop-color="#cf4327"/><stop offset="100%" stop-color="#9c2c16"/></radialGradient>
    <radialGradient id="vig" cx="50%" cy="42%" r="75%"><stop offset="62%" stop-color="#000" stop-opacity="0"/><stop offset="100%" stop-color="#000" stop-opacity="0.55"/></radialGradient>
  </defs>
  <rect width="800" height="600" fill="url(#bg)"/>
  <ellipse cx="400" cy="298" rx="269" ry="249" fill="#1c120b"/>
  <ellipse cx="400" cy="294" rx="255" ry="239" fill="#3a2414"/>
  <circle cx="400" cy="280" r="235" fill="url(#crust)"/>
  <circle cx="400" cy="280" r="211" fill="url(#base)"/>
  <circle cx="622.5" cy="313.3" r="5.3" fill="#3a1e0c" opacity="0.55"/><circle cx="613.7" cy="350.4" r="6.8" fill="#3a1e0c" opacity="0.55"/><circle cx="551.5" cy="446.4" r="7.5" fill="#3a1e0c" opacity="0.55"/><circle cx="527.6" cy="465.3" r="7.1" fill="#3a1e0c" opacity="0.55"/><circle cx="443.1" cy="500.8" r="8.7" fill="#3a1e0c" opacity="0.55"/><circle cx="390.0" cy="504.8" r="4.5" fill="#3a1e0c" opacity="0.55"/><circle cx="347.0" cy="498.7" r="5.5" fill="#3a1e0c" opacity="0.55"/><circle cx="255.2" cy="452.3" r="8.0" fill="#3a1e0c" opacity="0.55"/><circle cx="222.3" cy="418.0" r="8.9" fill="#3a1e0c" opacity="0.55"/><circle cx="205.5" cy="393.1" r="8.1" fill="#3a1e0c" opacity="0.55"/><circle cx="176.5" cy="305.6" r="7.0" fill="#3a1e0c" opacity="0.55"/><circle cx="182.2" cy="223.4" r="4.1" fill="#3a1e0c" opacity="0.55"/><circle cx="192.3" cy="193.4" r="10.9" fill="#3a1e0c" opacity="0.55"/><circle cx="216.8" cy="149.4" r="4.5" fill="#3a1e0c" opacity="0.55"/><circle cx="273.6" cy="93.9" r="9.8" fill="#3a1e0c" opacity="0.55"/><circle cx="347.6" cy="61.2" r="9.4" fill="#3a1e0c" opacity="0.55"/><circle cx="430.0" cy="57.0" r="10.8" fill="#3a1e0c" opacity="0.55"/><circle cx="449.2" cy="60.5" r="6.1" fill="#3a1e0c" opacity="0.55"/><circle cx="545.6" cy="108.5" r="4.8" fill="#3a1e0c" opacity="0.55"/><circle cx="557.3" cy="119.1" r="10.5" fill="#3a1e0c" opacity="0.55"/><circle cx="602.7" cy="182.3" r="7.7" fill="#3a1e0c" opacity="0.55"/><circle cx="625.0" cy="282.0" r="8.2" fill="#3a1e0c" opacity="0.55"/>
  <circle cx="557.6" cy="284.7" r="21.2" fill="#f4e4b6" opacity="0.7"/><circle cx="541.6" cy="249.3" r="24.6" fill="#f4e4b6" opacity="0.7"/><circle cx="464.8" cy="270.6" r="23.8" fill="#f4e4b6" opacity="0.7"/><circle cx="437.5" cy="252.0" r="25.0" fill="#f4e4b6" opacity="0.7"/><circle cx="444.1" cy="218.7" r="18.4" fill="#f4e4b6" opacity="0.7"/><circle cx="483.4" cy="192.6" r="24.6" fill="#f4e4b6" opacity="0.7"/><circle cx="458.7" cy="341.3" r="28.0" fill="#f4e4b6" opacity="0.7"/><circle cx="267.7" cy="362.9" r="17.8" fill="#f4e4b6" opacity="0.7"/><circle cx="403.1" cy="233.9" r="28.7" fill="#f4e4b6" opacity="0.7"/><circle cx="464.2" cy="402.9" r="18.6" fill="#f4e4b6" opacity="0.7"/><circle cx="288.6" cy="238.4" r="31.4" fill="#f4e4b6" opacity="0.7"/><circle cx="486.1" cy="233.0" r="32.0" fill="#f4e4b6" opacity="0.7"/><path d="M 425.7 248.0 a 9 9 0 1 1 14 6" fill="none" stroke="#e98a73" stroke-width="7" stroke-linecap="round"/><path d="M 390.9 305.5 a 9 9 0 1 1 14 6" fill="none" stroke="#e98a73" stroke-width="7" stroke-linecap="round"/><path d="M 449.4 434.0 a 9 9 0 1 1 14 6" fill="none" stroke="#e98a73" stroke-width="7" stroke-linecap="round"/><path d="M 370.3 350.5 a 9 9 0 1 1 14 6" fill="none" stroke="#e98a73" stroke-width="7" stroke-linecap="round"/><path d="M 299.6 144.5 a 9 9 0 1 1 14 6" fill="none" stroke="#e98a73" stroke-width="7" stroke-linecap="round"/><path d="M 365.6 309.9 a 9 9 0 1 1 14 6" fill="none" stroke="#e98a73" stroke-width="7" stroke-linecap="round"/><path d="M 213.6 259.9 a 9 9 0 1 1 14 6" fill="none" stroke="#e98a73" stroke-width="7" stroke-linecap="round"/><path d="M 409.0 407.4 a 9 9 0 1 1 14 6" fill="none" stroke="#e98a73" stroke-width="7" stroke-linecap="round"/><circle cx="455.3" cy="347.6" r="9.0" fill="#2a2230"/><circle cx="452.6" cy="344.9" r="3.1" fill="#ffffff" opacity="0.2"/><circle cx="408.4" cy="245.4" r="9.0" fill="#2a2230"/><circle cx="405.7" cy="242.7" r="3.1" fill="#ffffff" opacity="0.2"/><circle cx="378.9" cy="385.6" r="9.0" fill="#2a2230"/><circle cx="376.2" cy="382.9" r="3.1" fill="#ffffff" opacity="0.2"/><circle cx="307.6" cy="292.8" r="9.0" fill="#2a2230"/><circle cx="304.9" cy="290.1" r="3.1" fill="#ffffff" opacity="0.2"/><circle cx="298.8" cy="300.6" r="9.0" fill="#2a2230"/><circle cx="296.1" cy="297.9" r="3.1" fill="#ffffff" opacity="0.2"/><circle cx="425.6" cy="281.2" r="9.0" fill="#2a2230"/><circle cx="422.9" cy="278.5" r="3.1" fill="#ffffff" opacity="0.2"/><circle cx="259.4" cy="310.2" r="3.5" fill="#4e7d2e"/><circle cx="564.2" cy="295.4" r="3.5" fill="#4e7d2e"/><circle cx="422.2" cy="279.4" r="3.5" fill="#4e7d2e"/><circle cx="233.0" cy="331.6" r="3.5" fill="#4e7d2e"/><circle cx="348.1" cy="246.1" r="3.5" fill="#4e7d2e"/><circle cx="343.7" cy="433.6" r="3.5" fill="#4e7d2e"/><circle cx="274.7" cy="349.1" r="3.5" fill="#4e7d2e"/><circle cx="473.1" cy="294.3" r="3.5" fill="#4e7d2e"/><circle cx="347.1" cy="188.2" r="3.5" fill="#4e7d2e"/><circle cx="320.8" cy="136.6" r="3.5" fill="#4e7d2e"/><circle cx="512.9" cy="382.9" r="3.5" fill="#4e7d2e"/><circle cx="359.6" cy="235.7" r="3.5" fill="#4e7d2e"/>
  <ellipse cx="400" cy="280" rx="269" ry="249" fill="url(#vig)"/>
  <text x="400" y="554" text-anchor="middle" font-family="Georgia, 'Times New Roman', serif" font-style="italic" font-size="44" fill="#f5ecdd">Frutti di Mare</text>
  <text x="400" y="582" text-anchor="middle" font-family="Arial, sans-serif" font-size="13" letter-spacing="4" fill="#e8590c">LA BELLA · PIZZERIA</text>
</svg>