<svg xmlns="http://www.w3.org/2000/svg" viewBox="0 0 800 600" width="800" height="600" role="img" aria-label="Napolitaine">
  <defs>
    <radialGradient id="bg" cx="42%" cy="34%" r="80%"><stop offset="0%" stop-color="#241813"/><stop offset="100%" stop-color="#0a0706"/></radialGradient>
    <radialGradient id="crust" cx="50%" cy="46%" r="58%"><stop offset="62%" stop-color="#e7b15a"/><stop offset="86%" stop-color="#c07d2c"/><stop offset="100%" stop-color="#7d4314"/></radialGradient>
    <radialGradient id="base" cx="48%" cy="44%" r="58%"><stop offset="0%" stop-color="#cf4327"/><stop offset="100%" stop-color="#9c2c16"/></radialGradient>
    <radialGradient id="vig" cx="50%" cy="42%" r="75%"><stop offset="62%" stop-color="#000" stop-opacity="0"/><stop offset="100%" stop-color="#000" stop-opacity="0.55"/></radialGradient>
  </defs>
  <rect width="800" height="600" fill="url(#bg)"/>
  <ellipse cx="400" cy="298" rx="269" ry="249" fill="#1c120b"/>
  <ellipse cx="400" cy="294" rx="255" ry="239" fill="#3a2414"/>
  <circle cx="400" cy="280" r="235" fill="url(#crust)"/>
  <circle cx="400" cy="280" r="211" fill="url(#base)"/>
  <circle cx="624.7" cy="292.5" r="10.6" fill="#3a1e0c" opacity="0.55"/><circle cx="590.6" cy="399.6" r="5.1" fill="#3a1e0c" opacity="0.55"/><circle cx="547.4" cy="450.0" r="9.7" fill="#3a1e0c" opacity="0.55"/><circle cx="512.2" cy="475.0" r="9.5" fill="#3a1e0c" opacity="0.55"/><circle cx="490.7" cy="485.9" r="7.5" fill="#3a1e0c" opacity="0.55"/><circle cx="374.2" cy="503.5" r="9.4" fill="#3a1e0c" opacity="0.55"/><circle cx="351.8" cy="499.8" r="6.3" fill="#3a1e0c" opacity="0.55"/><circle cx="301.2" cy="482.1" r="4.6" fill="#3a1e0c" opacity="0.55"/><circle cx="229.1" cy="426.3" r="10.2" fill="#3a1e0c" opacity="0.55"/><circle cx="187.1" cy="352.8" r="10.8" fill="#3a1e0c" opacity="0.55"/><circle cx="180.5" cy="329.4" r="8.6" fill="#3a1e0c" opacity="0.55"/><circle cx="176.0" cy="258.6" r="6.7" fill="#3a1e0c" opacity="0.55"/><circle cx="192.9" cy="192.0" r="5.7" fill="#3a1e0c" opacity="0.55"/><circle cx="245.5" cy="116.4" r="5.1" fill="#3a1e0c" opacity="0.55"/><circle cx="303.2" cy="76.9" r="5.3" fill="#3a1e0c" opacity="0.55"/><circle cx="337.6" cy="63.8" r="7.8" fill="#3a1e0c" opacity="0.55"/><circle cx="374.4" cy="56.5" r="8.3" fill="#3a1e0c" opacity="0.55"/><circle cx="438.5" cy="58.3" r="10.0" fill="#3a1e0c" opacity="0.55"/><circle cx="528.3" cy="95.2" r="4.3" fill="#3a1e0c" opacity="0.55"/><circle cx="551.1" cy="113.3" r="6.5" fill="#3a1e0c" opacity="0.55"/><circle cx="614.9" cy="213.4" r="7.1" fill="#3a1e0c" opacity="0.55"/><circle cx="619.9" cy="232.5" r="7.3" fill="#3a1e0c" opacity="0.55"/>
  <circle cx="510.6" cy="393.1" r="27.9" fill="#f4e4b6" opacity="0.7"/><circle cx="552.8" cy="267.7" r="29.2" fill="#f4e4b6" opacity="0.7"/><circle cx="324.2" cy="211.9" r="28.9" fill="#f4e4b6" opacity="0.7"/><circle cx="429.2" cy="272.9" r="27.4" fill="#f4e4b6" opacity="0.7"/><circle cx="444.3" cy="399.4" r="16.9" fill="#f4e4b6" opacity="0.7"/><circle cx="476.9" cy="133.0" r="31.2" fill="#f4e4b6" opacity="0.7"/><circle cx="337.1" cy="260.3" r="26.5" fill="#f4e4b6" opacity="0.7"/><circle cx="270.2" cy="369.3" r="24.7" fill="#f4e4b6" opacity="0.7"/><circle cx="429.1" cy="286.6" r="20.8" fill="#f4e4b6" opacity="0.7"/><circle cx="518.7" cy="331.4" r="25.0" fill="#f4e4b6" opacity="0.7"/><circle cx="442.3" cy="439.7" r="29.8" fill="#f4e4b6" opacity="0.7"/><circle cx="439.9" cy="221.4" r="28.0" fill="#f4e4b6" opacity="0.7"/><rect x="313.3" y="296.8" width="28" height="8" rx="4" fill="#8a8170" transform="rotate(56 327.3 300.8)"/><rect x="262.2" y="139.8" width="28" height="8" rx="4" fill="#8a8170" transform="rotate(-52 276.2 143.8)"/><rect x="258.9" y="287.4" width="28" height="8" rx="4" fill="#8a8170" transform="rotate(-46 272.9 291.4)"/><rect x="395.5" y="252.0" width="28" height="8" rx="4" fill="#8a8170" transform="rotate(-25 409.5 256.0)"/><rect x="537.0" y="346.2" width="28" height="8" rx="4" fill="#8a8170" transform="rotate(-50 551.0 350.2)"/><rect x="544.9" y="259.9" width="28" height="8" rx="4" fill="#8a8170" transform="rotate(32 558.9 263.9)"/><rect x="440.4" y="375.7" width="28" height="8" rx="4" fill="#8a8170" transform="rotate(28 454.4 379.7)"/><circle cx="370.9" cy="349.6" r="5.0" fill="#7d8f4a"/><circle cx="369.4" cy="348.1" r="1.8" fill="#ffffff" opacity="0.3"/><circle cx="223.1" cy="244.8" r="5.0" fill="#7d8f4a"/><circle cx="221.6" cy="243.3" r="1.8" fill="#ffffff" opacity="0.3"/><circle cx="449.7" cy="137.2" r="5.0" fill="#7d8f4a"/><circle cx="448.2" cy="135.7" r="1.8" fill="#ffffff" opacity="0.3"/><circle cx="390.9" cy="460.1" r="5.0" fill="#7d8f4a"/><circle cx="389.4" cy="458.6" r="1.8" fill="#ffffff" opacity="0.3"/><circle cx="314.7" cy="348.6" r="5.0" fill="#7d8f4a"/><circle cx="313.2" cy="347.1" r="1.8" fill="#ffffff" opacity="0.3"/><circle cx="424.9" cy="341.1" r="5.0" fill="#7d8f4a"/><circle cx="423.4" cy="339.6" r="1.8" fill="#ffffff" opacity="0.3"/><circle cx="399.7" cy="396.0" r="5.0" fill="#7d8f4a"/><circle cx="398.2" cy="394.5" r="1.8" fill="#ffffff" opacity="0.3"/><circle cx="336.4" cy="387.5" r="5.0" fill="#7d8f4a"/><circle cx="334.9" cy="386.0" r="1.8" fill="#ffffff" opacity="0.3"/><circle cx="355.1" cy="352.9" r="10.0" fill="#1c1c1c"/><circle cx="352.1" cy="349.9" r="3.5" fill="#ffffff" opacity="0.25"/><circle cx="274.5" cy="229.9" r="10.0" fill="#1c1c1c"/><circle cx="271.5" cy="226.9" r="3.5" fill="#ffffff" opacity="0.25"/><circle cx="347.3" cy="323.3" r="10.0" fill="#1c1c1c"/><circle cx="344.3" cy="320.3" r="3.5" fill="#ffffff" opacity="0.25"/><circle cx="328.2" cy="361.4" r="10.0" fill="#1c1c1c"/><circle cx="325.2" cy="358.4" r="3.5" fill="#ffffff" opacity="0.25"/><circle cx="452.3" cy="398.8" r="10.0" fill="#1c1c1c"/><circle cx="449.3" cy="395.8" r="3.5" fill="#ffffff" opacity="0.25"/><circle cx="292.5" cy="236.6" r="10.0" fill="#1c1c1c"/><circle cx="289.5" cy="233.6" r="3.5" fill="#ffffff" opacity="0.25"/><circle cx="414.7" cy="217.6" r="10.0" fill="#1c1c1c"/><circle cx="411.7" cy="214.6" r="3.5" fill="#ffffff" opacity="0.25"/>
  <ellipse cx="400" cy="280" rx="269" ry="249" fill="url(#vig)"/>
  <text x="400" y="554" text-anchor="middle" font-family="Georgia, 'Times New Roman', serif" font-style="italic" font-size="44" fill="#f5ecdd">Napolitaine</text>
  <text x="400" y="582" text-anchor="middle" font-family="Arial, sans-serif" font-size="13" letter-spacing="4" fill="#e8590c">LA BELLA · PIZZERIA</text>
</svg>