<svg xmlns="http://www.w3.org/2000/svg" viewBox="0 0 800 600" width="800" height="600" role="img" aria-label="Pepperoni">
  <defs>
    <radialGradient id="bg" cx="42%" cy="34%" r="80%"><stop offset="0%" stop-color="#241813"/><stop offset="100%" stop-color="#0a0706"/></radialGradient>
    <radialGradient id="crust" cx="50%" cy="46%" r="58%"><stop offset="62%" stop-color="#e7b15a"/><stop offset="86%" stop-color="#c07d2c"/><stop offset="100%" stop-color="#7d4314"/></radialGradient>
    <radialGradient id="base" cx="48%" cy="44%" r="58%"><stop offset="0%" stop-color="#cf4327"/><stop offset="100%" stop-color="#9c2c16"/></radialGradient>
    <radialGradient id="vig" cx="50%" cy="42%" r="75%"><stop offset="62%" stop-color="#000" stop-opacity="0"/><stop offset="100%" stop-color="#000" stop-opacity="0.55"/></radialGradient>
  </defs>
  <rect width="800" height="600" fill="url(#bg)"/>
  <ellipse cx="400" cy="298" rx="269" ry="249" fill="#1c120b"/>
  <ellipse cx="400" cy="294" rx="255" ry="239" fill="#3a2414"/>
  <circle cx="400" cy="280" r="235" fill="url(#crust)"/>
  <circle cx="400" cy="280" r="211" fill="url(#base)"/>
  <circle cx="624.0" cy="300.9" r="5.7" fill="#3a1e0c" opacity="0.55"/><circle cx="611.9" cy="355.8" r="5.8" fill="#3a1e0c" opacity="0.55"/><circle cx="549.0" cy="448.6" r="8.8" fill="#3a1e0c" opacity="0.55"/><circle cx="506.8" cy="478.0" r="8.5" fill="#3a1e0c" opacity="0.55"/><circle cx="446.0" cy="500.2" r="5.2" fill="#3a1e0c" opacity="0.55"/><circle cx="380.5" cy="504.2" r="6.0" fill="#3a1e0c" opacity="0.55"/><circle cx="363.1" cy="502.0" r="10.2" fill="#3a1e0c" opacity="0.55"/><circle cx="259.8" cy="456.0" r="7.4" fill="#3a1e0c" opacity="0.55"/><circle cx="244.7" cy="442.8" r="9.7" fill="#3a1e0c" opacity="0.55"/><circle cx="199.2" cy="381.6" r="8.3" fill="#3a1e0c" opacity="0.55"/><circle cx="178.6" cy="319.9" r="9.4" fill="#3a1e0c" opacity="0.55"/><circle cx="177.8" cy="244.4" r="8.4" fill="#3a1e0c" opacity="0.55"/><circle cx="211.7" cy="156.9" r="9.2" fill="#3a1e0c" opacity="0.55"/><circle cx="224.5" cy="139.2" r="10.4" fill="#3a1e0c" opacity="0.55"/><circle cx="279.4" cy="90.0" r="8.5" fill="#3a1e0c" opacity="0.55"/><circle cx="316.0" cy="71.3" r="5.6" fill="#3a1e0c" opacity="0.55"/><circle cx="423.6" cy="56.2" r="6.5" fill="#3a1e0c" opacity="0.55"/><circle cx="442.8" cy="59.1" r="7.0" fill="#3a1e0c" opacity="0.55"/><circle cx="512.9" cy="85.4" r="4.5" fill="#3a1e0c" opacity="0.55"/><circle cx="553.6" cy="115.6" r="8.1" fill="#3a1e0c" opacity="0.55"/><circle cx="605.5" cy="188.3" r="4.6" fill="#3a1e0c" opacity="0.55"/><circle cx="624.5" cy="265.6" r="4.9" fill="#3a1e0c" opacity="0.55"/>
  <circle cx="538.7" cy="146.4" r="25.2" fill="#f4e4b6" opacity="0.7"/><circle cx="582.9" cy="255.4" r="27.4" fill="#f4e4b6" opacity="0.7"/><circle cx="299.7" cy="400.2" r="26.9" fill="#f4e4b6" opacity="0.7"/><circle cx="433.9" cy="265.7" r="29.6" fill="#f4e4b6" opacity="0.7"/><circle cx="321.2" cy="162.8" r="17.5" fill="#f4e4b6" opacity="0.7"/><circle cx="542.1" cy="320.9" r="25.3" fill="#f4e4b6" opacity="0.7"/><circle cx="365.9" cy="261.2" r="17.5" fill="#f4e4b6" opacity="0.7"/><circle cx="591.4" cy="288.2" r="25.1" fill="#f4e4b6" opacity="0.7"/><circle cx="394.4" cy="244.1" r="24.0" fill="#f4e4b6" opacity="0.7"/><circle cx="422.8" cy="298.5" r="25.6" fill="#f4e4b6" opacity="0.7"/><circle cx="315.2" cy="399.7" r="17.6" fill="#f4e4b6" opacity="0.7"/><circle cx="442.0" cy="301.5" r="20.0" fill="#f4e4b6" opacity="0.7"/><circle cx="251.6" cy="354.4" r="20" fill="#a83025"/><circle cx="251.6" cy="354.4" r="20" fill="none" stroke="#7e2018" stroke-width="2"/><circle cx="246.6" cy="349.4" r="5" fill="#c2503f" opacity="0.7"/><circle cx="382.6" cy="366.6" r="20" fill="#a83025"/><circle cx="382.6" cy="366.6" r="20" fill="none" stroke="#7e2018" stroke-width="2"/><circle cx="377.6" cy="361.6" r="5" fill="#c2503f" opacity="0.7"/><circle cx="404.7" cy="433.9" r="20" fill="#a83025"/><circle cx="404.7" cy="433.9" r="20" fill="none" stroke="#7e2018" stroke-width="2"/><circle cx="399.7" cy="428.9" r="5" fill="#c2503f" opacity="0.7"/><circle cx="451.1" cy="150.0" r="20" fill="#a83025"/><circle cx="451.1" cy="150.0" r="20" fill="none" stroke="#7e2018" stroke-width="2"/><circle cx="446.1" cy="145.0" r="5" fill="#c2503f" opacity="0.7"/><circle cx="375.7" cy="274.6" r="20" fill="#a83025"/><circle cx="375.7" cy="274.6" r="20" fill="none" stroke="#7e2018" stroke-width="2"/><circle cx="370.7" cy="269.6" r="5" fill="#c2503f" opacity="0.7"/><circle cx="304.4" cy="409.5" r="20" fill="#a83025"/><circle cx="304.4" cy="409.5" r="20" fill="none" stroke="#7e2018" stroke-width="2"/><circle cx="299.4" cy="404.5" r="5" fill="#c2503f" opacity="0.7"/><circle cx="367.4" cy="290.9" r="20" fill="#a83025"/><circle cx="367.4" cy="290.9" r="20" fill="none" stroke="#7e2018" stroke-width="2"/><circle cx="362.4" cy="285.9" r="5" fill="#c2503f" opacity="0.7"/><circle cx="482.3" cy="382.5" r="20" fill="#a83025"/><circle cx="482.3" cy="382.5" r="20" fill="none" stroke="#7e2018" stroke-width="2"/><circle cx="477.3" cy="377.5" r="5" fill="#c2503f" opacity="0.7"/><circle cx="333.3" cy="388.0" r="20" fill="#a83025"/><circle cx="333.3" cy="388.0" r="20" fill="none" stroke="#7e2018" stroke-width="2"/><circle cx="328.3" cy="383.0" r="5" fill="#c2503f" opacity="0.7"/><circle cx="314.1" cy="202.0" r="20" fill="#a83025"/><circle cx="314.1" cy="202.0" r="20" fill="none" stroke="#7e2018" stroke-width="2"/><circle cx="309.1" cy="197.0" r="5" fill="#c2503f" opacity="0.7"/><circle cx="348.6" cy="263.0" r="20" fill="#a83025"/><circle cx="348.6" cy="263.0" r="20" fill="none" stroke="#7e2018" stroke-width="2"/><circle cx="343.6" cy="258.0" r="5" fill="#c2503f" opacity="0.7"/><circle cx="479.8" cy="433.9" r="20" fill="#a83025"/><circle cx="479.8" cy="433.9" r="20" fill="none" stroke="#7e2018" stroke-width="2"/><circle cx="474.8" cy="428.9" r="5" fill="#c2503f" opacity="0.7"/>
  <ellipse cx="400" cy="280" rx="269" ry="249" fill="url(#vig)"/>
  <text x="400" y="554" text-anchor="middle" font-family="Georgia, 'Times New Roman', serif" font-style="italic" font-size="44" fill="#f5ecdd">Pepperoni</text>
  <text x="400" y="582" text-anchor="middle" font-family="Arial, sans-serif" font-size="13" letter-spacing="4" fill="#e8590c">LA BELLA · PIZZERIA</text>
</svg>