<svg xmlns="http://www.w3.org/2000/svg" viewBox="0 0 800 600" width="800" height="600" role="img" aria-label="Vegetariana">
  <defs>
    <radialGradient id="bg" cx="42%" cy="34%" r="80%"><stop offset="0%" stop-color="#241813"/><stop offset="100%" stop-color="#0a0706"/></radialGradient>
    <radialGradient id="crust" cx="50%" cy="46%" r="58%"><stop offset="62%" stop-color="#e7b15a"/><stop offset="86%" stop-color="#c07d2c"/><stop offset="100%" stop-color="#7d4314"/></radialGradient>
    <radialGradient id="base" cx="48%" cy="44%" r="58%"><stop offset="0%" stop-color="#cf4327"/><stop offset="100%" stop-color="#9c2c16"/></radialGradient>
    <radialGradient id="vig" cx="50%" cy="42%" r="75%"><stop offset="62%" stop-color="#000" stop-opacity="0"/><stop offset="100%" stop-color="#000" stop-opacity="0.55"/></radialGradient>
  </defs>
  <rect width="800" height="600" fill="url(#bg)"/>
  <ellipse cx="400" cy="298" rx="269" ry="249" fill="#1c120b"/>
  <ellipse cx="400" cy="294" rx="255" ry="239" fill="#3a2414"/>
  <circle cx="400" cy="280" r="235" fill="url(#crust)"/>
  <circle cx="400" cy="280" r="211" fill="url(#base)"/>
  <circle cx="624.4" cy="296.7" r="8.1" fill="#3a1e0c" opacity="0.55"/><circle cx="602.4" cy="378.2" r="5.4" fill="#3a1e0c" opacity="0.55"/><circle cx="548.2" cy="449.3" r="9.3" fill="#3a1e0c" opacity="0.55"/><circle cx="537.7" cy="458.0" r="9.0" fill="#3a1e0c" opacity="0.55"/><circle cx="468.7" cy="494.2" r="6.3" fill="#3a1e0c" opacity="0.55"/><circle cx="377.4" cy="503.9" r="4.2" fill="#3a1e0c" opacity="0.55"/><circle cx="324.9" cy="492.1" r="4.7" fill="#3a1e0c" opacity="0.55"/><circle cx="279.8" cy="470.2" r="9.5" fill="#3a1e0c" opacity="0.55"/><circle cx="236.7" cy="434.8" r="9.9" fill="#3a1e0c" opacity="0.55"/><circle cx="208.1" cy="397.4" r="6.1" fill="#3a1e0c" opacity="0.55"/><circle cx="179.5" cy="324.7" r="5.5" fill="#3a1e0c" opacity="0.55"/><circle cx="176.8" cy="251.4" r="7.5" fill="#3a1e0c" opacity="0.55"/><circle cx="187.9" cy="204.9" r="11.0" fill="#3a1e0c" opacity="0.55"/><circle cx="213.7" cy="153.9" r="7.8" fill="#3a1e0c" opacity="0.55"/><circle cx="262.9" cy="101.6" r="10.4" fill="#3a1e0c" opacity="0.55"/><circle cx="326.7" cy="67.3" r="6.7" fill="#3a1e0c" opacity="0.55"/><circle cx="399.0" cy="55.0" r="7.4" fill="#3a1e0c" opacity="0.55"/><circle cx="440.7" cy="58.7" r="5.0" fill="#3a1e0c" opacity="0.55"/><circle cx="520.7" cy="90.1" r="4.4" fill="#3a1e0c" opacity="0.55"/><circle cx="552.4" cy="114.5" r="7.3" fill="#3a1e0c" opacity="0.55"/><circle cx="596.4" cy="170.1" r="5.8" fill="#3a1e0c" opacity="0.55"/><circle cx="625.0" cy="282.6" r="6.1" fill="#3a1e0c" opacity="0.55"/>
  <circle cx="311.2" cy="278.7" r="26.6" fill="#f4e4b6" opacity="0.7"/><circle cx="482.0" cy="271.2" r="28.3" fill="#f4e4b6" opacity="0.7"/><circle cx="271.1" cy="289.3" r="27.9" fill="#f4e4b6" opacity="0.7"/><circle cx="431.7" cy="269.5" r="20.5" fill="#f4e4b6" opacity="0.7"/><circle cx="442.5" cy="258.2" r="17.2" fill="#f4e4b6" opacity="0.7"/><circle cx="255.8" cy="341.7" r="20.3" fill="#f4e4b6" opacity="0.7"/><circle cx="527.8" cy="334.6" r="30.0" fill="#f4e4b6" opacity="0.7"/><circle cx="424.3" cy="364.6" r="16.9" fill="#f4e4b6" opacity="0.7"/><circle cx="375.8" cy="302.6" r="22.4" fill="#f4e4b6" opacity="0.7"/><circle cx="541.9" cy="365.9" r="17.3" fill="#f4e4b6" opacity="0.7"/><circle cx="372.3" cy="433.5" r="23.7" fill="#f4e4b6" opacity="0.7"/><circle cx="259.0" cy="316.0" r="32.0" fill="#f4e4b6" opacity="0.7"/><circle cx="434.0" cy="266.8" r="12.0" fill="#d83b2a"/><circle cx="430.4" cy="263.2" r="4.2" fill="#ffffff" opacity="0.3"/><circle cx="322.2" cy="201.9" r="12.0" fill="#d83b2a"/><circle cx="318.6" cy="198.3" r="4.2" fill="#ffffff" opacity="0.3"/><circle cx="322.2" cy="226.3" r="12.0" fill="#d83b2a"/><circle cx="318.6" cy="222.7" r="4.2" fill="#ffffff" opacity="0.3"/><circle cx="370.4" cy="240.4" r="12.0" fill="#d83b2a"/><circle cx="366.8" cy="236.8" r="4.2" fill="#ffffff" opacity="0.3"/><circle cx="444.1" cy="197.1" r="12.0" fill="#d83b2a"/><circle cx="440.5" cy="193.5" r="4.2" fill="#ffffff" opacity="0.3"/><circle cx="386.3" cy="250.5" r="12.0" fill="#d83b2a"/><circle cx="382.7" cy="246.9" r="4.2" fill="#ffffff" opacity="0.3"/><circle cx="405.7" cy="178.8" r="11.0" fill="#5a8f37"/><circle cx="402.4" cy="175.5" r="3.8" fill="#ffffff" opacity="0.3"/><circle cx="457.9" cy="330.3" r="11.0" fill="#5a8f37"/><circle cx="454.6" cy="327.0" r="3.8" fill="#ffffff" opacity="0.3"/><circle cx="527.2" cy="340.3" r="11.0" fill="#5a8f37"/><circle cx="523.9" cy="337.0" r="3.8" fill="#ffffff" opacity="0.3"/><circle cx="424.2" cy="261.0" r="11.0" fill="#5a8f37"/><circle cx="420.9" cy="257.7" r="3.8" fill="#ffffff" opacity="0.3"/><circle cx="304.4" cy="163.3" r="11.0" fill="#5a8f37"/><circle cx="301.1" cy="160.0" r="3.8" fill="#ffffff" opacity="0.3"/><circle cx="390.1" cy="136.6" r="11.0" fill="#5a8f37"/><circle cx="386.8" cy="133.3" r="3.8" fill="#ffffff" opacity="0.3"/><circle cx="414.9" cy="427.9" r="11.0" fill="#5d3b6e"/><circle cx="411.6" cy="424.6" r="3.8" fill="#ffffff" opacity="0.3"/><circle cx="425.8" cy="280.6" r="11.0" fill="#5d3b6e"/><circle cx="422.5" cy="277.3" r="3.8" fill="#ffffff" opacity="0.3"/><circle cx="417.8" cy="447.8" r="11.0" fill="#5d3b6e"/><circle cx="414.5" cy="444.5" r="3.8" fill="#ffffff" opacity="0.3"/><circle cx="578.9" cy="288.4" r="11.0" fill="#5d3b6e"/><circle cx="575.6" cy="285.1" r="3.8" fill="#ffffff" opacity="0.3"/><circle cx="424.1" cy="279.7" r="11.0" fill="#5d3b6e"/><circle cx="420.8" cy="276.4" r="3.8" fill="#ffffff" opacity="0.3"/><circle cx="385.1" cy="181.6" r="8.0" fill="#e7b32e"/><circle cx="382.7" cy="179.2" r="2.8" fill="#ffffff" opacity="0.3"/><circle cx="412.5" cy="238.0" r="8.0" fill="#e7b32e"/><circle cx="410.1" cy="235.6" r="2.8" fill="#ffffff" opacity="0.3"/><circle cx="453.8" cy="357.0" r="8.0" fill="#e7b32e"/><circle cx="451.4" cy="354.6" r="2.8" fill="#ffffff" opacity="0.3"/><circle cx="442.0" cy="443.0" r="8.0" fill="#e7b32e"/><circle cx="439.6" cy="440.6" r="2.8" fill="#ffffff" opacity="0.3"/><circle cx="449.7" cy="284.8" r="8.0" fill="#e7b32e"/><circle cx="447.3" cy="282.4" r="2.8" fill="#ffffff" opacity="0.3"/><circle cx="367.2" cy="336.7" r="8.0" fill="#e7b32e"/><circle cx="364.8" cy="334.3" r="2.8" fill="#ffffff" opacity="0.3"/>
  <ellipse cx="400" cy="280" rx="269" ry="249" fill="url(#vig)"/>
  <text x="400" y="554" text-anchor="middle" font-family="Georgia, 'Times New Roman', serif" font-style="italic" font-size="44" fill="#f5ecdd">Vegetariana</text>
  <text x="400" y="582" text-anchor="middle" font-family="Arial, sans-serif" font-size="13" letter-spacing="4" fill="#e8590c">LA BELLA · PIZZERIA</text>
</svg>