<svg xmlns="http://www.w3.org/2000/svg" viewBox="0 0 1600 1000" width="1600" height="1000" role="img" aria-label="Le goût de l&#39;Italie">
  <defs>
    <radialGradient id="g" cx="30%" cy="30%" r="90%">
      <stop offset="0%" stop-color="#2c221c"/><stop offset="60%" stop-color="#19130f"/><stop offset="100%" stop-color="#0c0a09"/>
    </radialGradient>
    <linearGradient id="ember" x1="0" y1="1" x2="1" y2="0">
      <stop offset="0%" stop-color="#e8590c" stop-opacity="0.35"/><stop offset="50%" stop-color="#e8590c" stop-opacity="0.08"/><stop offset="100%" stop-color="#e8590c" stop-opacity="0"/>
    </linearGradient>
  </defs>
  <rect width="1600" height="1000" fill="url(#g)"/>
  <rect width="1600" height="1000" fill="url(#ember)"/>
  <g opacity="0.9" transform="translate(800, 460)" fill="none" stroke="#e8590c" stroke-width="3" stroke-linecap="round" stroke-linejoin="round"><path d="M0 -60 C 30 -20 40 -10 40 20 A 40 40 0 1 1 -40 20 C -40 -10 -10 -20 0 -60 Z"/><path d="M0 -10 C 14 8 18 14 18 28 A 18 18 0 1 1 -18 28 C -18 16 -8 4 0 -10 Z" stroke-width="2"/></g>
  <text x="800" y="578" text-anchor="middle" font-family="Georgia, serif" font-style="italic" font-size="40" fill="#f5ecdd">Le goût de l&#39;Italie</text>
  <text x="800" y="616" text-anchor="middle" font-family="Arial, sans-serif" font-size="14" letter-spacing="5" fill="#e8590c">LA BELLA · PIZZERIA</text>
</svg>