<svg xmlns="http://www.w3.org/2000/svg" viewBox="0 0 800 640" width="800" height="640" role="img" aria-label="Diavola">
  <defs>
    <radialGradient id="bg" cx="50%" cy="38%" r="75%">
      <stop offset="0%" stop-color="#2a211c"/><stop offset="100%" stop-color="#0f0c0b"/>
    </radialGradient>
    <radialGradient id="crust" cx="50%" cy="45%" r="60%">
      <stop offset="60%" stop-color="#e6b25a"/><stop offset="88%" stop-color="#cf8a32"/><stop offset="100%" stop-color="#9c5a1c"/>
    </radialGradient>
    <radialGradient id="sauce" cx="50%" cy="45%" r="60%">
      <stop offset="0%" stop-color="#d6452b"/><stop offset="100%" stop-color="#a32c18"/>
    </radialGradient>
  </defs>
  <rect width="800" height="640" fill="url(#bg)"/>
  <circle cx="400" cy="290" r="236" fill="#000" opacity="0.35"/>
  <circle cx="400" cy="290" r="230" fill="url(#crust)"/>
  <circle cx="400" cy="290" r="204" fill="url(#sauce)"/>
  <circle cx="463.0" cy="430.1" r="18.6" fill="#f4e3b8" opacity="0.55"/><circle cx="282.5" cy="243.0" r="30.8" fill="#f4e3b8" opacity="0.55"/><circle cx="316.8" cy="453.6" r="28.2" fill="#f4e3b8" opacity="0.55"/><circle cx="455.6" cy="245.4" r="20.1" fill="#f4e3b8" opacity="0.55"/><circle cx="324.9" cy="130.4" r="37.6" fill="#f4e3b8" opacity="0.55"/><circle cx="468.0" cy="342.1" r="23.9" fill="#f4e3b8" opacity="0.55"/><circle cx="238.2" cy="199.1" r="32.1" fill="#f4e3b8" opacity="0.55"/><circle cx="338.1" cy="278.7" r="27.4" fill="#f4e3b8" opacity="0.55"/><circle cx="332.2" cy="369.4" r="19.1" fill="#f4e3b8" opacity="0.55"/><circle cx="343.4" cy="290.2" r="38.1" fill="#f4e3b8" opacity="0.55"/>
  <circle cx="509.6" cy="442.1" r="16.3" fill="#b23b2a" opacity="0.95"/><circle cx="447.5" cy="237.1" r="9.0" fill="#1c1c1c" opacity="0.95"/><circle cx="438.6" cy="334.0" r="14.0" fill="#d6452b" opacity="0.95"/><circle cx="356.1" cy="334.3" r="15.7" fill="#b23b2a" opacity="0.95"/><circle cx="544.9" cy="289.8" r="7.4" fill="#1c1c1c" opacity="0.95"/><circle cx="338.0" cy="319.9" r="11.7" fill="#d6452b" opacity="0.95"/><circle cx="441.2" cy="311.7" r="14.9" fill="#b23b2a" opacity="0.95"/><circle cx="308.8" cy="397.1" r="9.1" fill="#1c1c1c" opacity="0.95"/><circle cx="365.4" cy="181.9" r="12.6" fill="#d6452b" opacity="0.95"/><circle cx="222.6" cy="279.9" r="15.8" fill="#b23b2a" opacity="0.95"/><circle cx="427.3" cy="381.7" r="10.8" fill="#1c1c1c" opacity="0.95"/><circle cx="423.7" cy="366.4" r="11.7" fill="#d6452b" opacity="0.95"/><circle cx="437.9" cy="269.2" r="13.0" fill="#b23b2a" opacity="0.95"/><circle cx="407.4" cy="242.9" r="9.0" fill="#1c1c1c" opacity="0.95"/>
  <text x="400" y="588" text-anchor="middle" font-family="Georgia, 'Times New Roman', serif" font-size="46" fill="#f5ecdd" font-style="italic">Diavola</text>
  <text x="400" y="618" text-anchor="middle" font-family="Arial, sans-serif" font-size="15" letter-spacing="4" fill="#e8590c">LA BELLA · PIZZERIA</text>
</svg>