<svg xmlns="http://www.w3.org/2000/svg" viewBox="0 0 800 640" width="800" height="640" role="img" aria-label="Vegetariana">
  <defs>
    <radialGradient id="bg" cx="50%" cy="38%" r="75%">
      <stop offset="0%" stop-color="#2a211c"/><stop offset="100%" stop-color="#0f0c0b"/>
    </radialGradient>
    <radialGradient id="crust" cx="50%" cy="45%" r="60%">
      <stop offset="60%" stop-color="#e6b25a"/><stop offset="88%" stop-color="#cf8a32"/><stop offset="100%" stop-color="#9c5a1c"/>
    </radialGradient>
    <radialGradient id="sauce" cx="50%" cy="45%" r="60%">
      <stop offset="0%" stop-color="#d6452b"/><stop offset="100%" stop-color="#a32c18"/>
    </radialGradient>
  </defs>
  <rect width="800" height="640" fill="url(#bg)"/>
  <circle cx="400" cy="290" r="236" fill="#000" opacity="0.35"/>
  <circle cx="400" cy="290" r="230" fill="url(#crust)"/>
  <circle cx="400" cy="290" r="204" fill="url(#sauce)"/>
  <circle cx="383.9" cy="247.3" r="34.1" fill="#f4e3b8" opacity="0.55"/><circle cx="371.4" cy="466.5" r="32.0" fill="#f4e3b8" opacity="0.55"/><circle cx="535.4" cy="261.8" r="38.4" fill="#f4e3b8" opacity="0.55"/><circle cx="460.2" cy="428.2" r="18.5" fill="#f4e3b8" opacity="0.55"/><circle cx="331.6" cy="391.9" r="25.5" fill="#f4e3b8" opacity="0.55"/><circle cx="478.6" cy="197.8" r="24.4" fill="#f4e3b8" opacity="0.55"/><circle cx="429.2" cy="333.6" r="24.5" fill="#f4e3b8" opacity="0.55"/><circle cx="309.9" cy="178.5" r="35.0" fill="#f4e3b8" opacity="0.55"/><circle cx="388.0" cy="149.9" r="20.9" fill="#f4e3b8" opacity="0.55"/><circle cx="468.7" cy="203.1" r="35.6" fill="#f4e3b8" opacity="0.55"/>
  <circle cx="357.8" cy="250.2" r="10.5" fill="#5a8f37" opacity="0.95"/><circle cx="241.4" cy="364.5" r="14.0" fill="#d6452b" opacity="0.95"/><circle cx="246.2" cy="275.0" r="10.7" fill="#5d3b6e" opacity="0.95"/><circle cx="384.4" cy="346.4" r="7.7" fill="#6a9a3b" opacity="0.95"/><circle cx="442.9" cy="380.0" r="10.3" fill="#5a8f37" opacity="0.95"/><circle cx="365.9" cy="268.1" r="11.9" fill="#d6452b" opacity="0.95"/><circle cx="487.9" cy="258.3" r="11.0" fill="#5d3b6e" opacity="0.95"/><circle cx="306.1" cy="147.0" r="8.2" fill="#6a9a3b" opacity="0.95"/><circle cx="513.3" cy="437.3" r="9.3" fill="#5a8f37" opacity="0.95"/><circle cx="423.1" cy="245.3" r="13.1" fill="#d6452b" opacity="0.95"/><circle cx="495.2" cy="373.9" r="12.3" fill="#5d3b6e" opacity="0.95"/><circle cx="239.1" cy="366.3" r="8.0" fill="#6a9a3b" opacity="0.95"/><circle cx="445.5" cy="397.2" r="11.1" fill="#5a8f37" opacity="0.95"/><circle cx="449.2" cy="143.5" r="15.6" fill="#d6452b" opacity="0.95"/>
  <text x="400" y="588" text-anchor="middle" font-family="Georgia, 'Times New Roman', serif" font-size="46" fill="#f5ecdd" font-style="italic">Vegetariana</text>
  <text x="400" y="618" text-anchor="middle" font-family="Arial, sans-serif" font-size="15" letter-spacing="4" fill="#e8590c">LA BELLA · PIZZERIA</text>
</svg>